# ProBuilder 5.0.4
# https://unity3d.com/unity/features/worldbuilding/probuilder
# 7/2/2022 5:28:03 PM

mtllib ./Cube_(1).mtl
o Cube (1)

g Cube (1)
v -4.826021 -0.5475101 4.741527
v -5.32487 -0.5475103 4.741527
v -5.32487 3.758114 4.741527
v -4.826021 3.758114 4.741527
v -5.823719 -0.5475104 4.741527
v -5.823719 3.758114 4.741527
v -5.823719 8.063738 4.741527
v -5.32487 8.063738 4.741527
v -4.826021 8.063738 4.741527
v -6.322568 -0.5475105 4.741527
v -6.322568 3.758114 4.741527
v -6.821417 -0.5475106 4.741527
v -6.821417 3.758114 4.741527
v -6.821417 8.063738 4.741527
v -6.322568 8.063738 4.741527
v -6.322568 12.36936 4.741527
v -5.823719 12.36936 4.741527
v -6.821417 12.36936 4.741527
v -6.821417 16.67499 4.741527
v -6.322568 16.67499 4.741527
v -5.823719 16.67499 4.741527
v -5.32487 12.36936 4.741527
v -4.826021 12.36936 4.741527
v -5.32487 16.67499 4.741527
v -4.826021 16.67499 4.741527
v -6.821417 -0.5475106 1.065697
v -6.821417 3.758114 1.065697
v -6.821417 -0.5475106 -2.610133
v -6.821417 3.758114 -2.610133
v -6.821417 8.063738 -2.610133
v -6.821417 8.063738 1.065697
v -6.821417 -0.5475106 -6.285963
v -6.821417 3.758114 -6.285963
v -6.821417 -0.5475106 -9.961793
v -6.821417 3.758114 -9.961793
v -6.821417 8.063738 -9.961793
v -6.821417 8.063738 -6.285963
v -6.821417 12.36936 -6.285963
v -6.821417 12.36936 -2.610133
v -6.821417 12.36936 -9.961793
v -6.821417 16.67499 -9.961793
v -6.821417 16.67499 -6.285963
v -6.821417 16.67499 -2.610133
v -6.821417 12.36936 1.065697
v -6.821417 16.67499 1.065697
v -5.82372 -0.5475106 -9.961793
v -5.82372 3.758114 -9.961793
v -6.322568 3.758114 -9.961793
v -6.322568 -0.5475106 -9.961793
v -5.82372 8.063738 -9.961793
v -6.322568 8.063738 -9.961793
v -4.826022 -0.5475106 -9.961793
v -4.826022 3.758114 -9.961793
v -5.324871 3.758114 -9.961793
v -5.324871 -0.5475106 -9.961793
v -4.826022 8.063738 -9.961793
v -5.324871 8.063738 -9.961793
v -5.823719 16.67499 -9.961793
v -5.823719 12.36936 -9.961793
v -5.32487 12.36936 -9.961793
v -5.32487 16.67499 -9.961793
v -4.826021 12.36936 -9.961793
v -4.826021 16.67499 -9.961793
v -6.322568 12.36936 -9.961793
v -6.322568 16.67499 -9.961793
v -4.826022 -0.5475104 -2.610133
v -4.826021 3.758114 -2.610133
v -4.826022 3.758114 -6.285963
v -4.826022 -0.5475105 -6.285963
v -4.826021 8.063738 -2.610133
v -4.826021 8.063738 -6.285963
v -4.826021 3.758114 1.065697
v -4.826021 -0.5475103 1.065697
v -4.826021 8.063738 1.065697
v -4.826021 12.36936 1.065697
v -4.826021 16.67499 1.065697
v -4.826021 16.67499 -2.610133
v -4.826021 12.36936 -2.610133
v -4.826021 16.67499 -6.285963
v -4.826021 12.36936 -6.285963
v -5.823719 16.67499 -2.610133
v -5.32487 16.67499 -2.610133
v -5.32487 16.67499 1.065697
v -5.823719 16.67499 1.065697
v -6.322568 16.67499 -2.610133
v -6.322568 16.67499 1.065697
v -6.322568 16.67499 -6.285963
v -5.823719 16.67499 -6.285963
v -5.32487 16.67499 -6.285963
v -5.324871 -0.5475105 -6.285963
v -5.324871 -0.5475104 -2.610133
v -5.82372 -0.5475106 -6.285963
v -5.82372 -0.5475105 -2.610133
v -6.322568 -0.5475106 -6.285963
v -6.322568 -0.5475106 -2.610133
v -5.823719 -0.5475104 1.065697
v -6.322568 -0.5475105 1.065697
v -5.32487 -0.5475104 1.065697

vt -4.826021 -0.5475101
vt -5.32487 -0.5475103
vt -5.32487 3.758114
vt -4.826021 3.758114
vt -5.823719 -0.5475104
vt -5.823719 3.758114
vt -5.823719 8.063738
vt -5.32487 8.063738
vt -4.826021 8.063738
vt -6.322568 -0.5475105
vt -6.322568 3.758114
vt -6.821417 -0.5475106
vt -6.821417 3.758114
vt -6.821417 8.063738
vt -6.322568 8.063738
vt -6.322568 12.36936
vt -5.823719 12.36936
vt -6.821417 12.36936
vt -6.821417 16.67499
vt -6.322568 16.67499
vt -5.823719 16.67499
vt -5.32487 12.36936
vt -4.826021 12.36936
vt -5.32487 16.67499
vt -4.826021 16.67499
vt 4.741527 -0.5475106
vt 1.065697 -0.5475106
vt 1.065697 3.758114
vt 4.741527 3.758114
vt -2.610133 -0.5475106
vt -2.610133 3.758114
vt -2.610133 8.063738
vt 1.065697 8.063738
vt 4.741527 8.063738
vt -6.285963 -0.5475106
vt -6.285963 3.758114
vt -9.961793 -0.5475106
vt -9.961793 3.758114
vt -9.961793 8.063738
vt -6.285963 8.063738
vt -6.285963 12.36936
vt -2.610133 12.36936
vt -9.961793 12.36936
vt -9.961793 16.67499
vt -6.285963 16.67499
vt -2.610133 16.67499
vt 1.065697 12.36936
vt 4.741527 12.36936
vt 1.065697 16.67499
vt 4.741527 16.67499
vt 5.82372 -0.5475106
vt 5.82372 3.758114
vt 6.322568 3.758114
vt 6.322568 -0.5475106
vt 5.82372 8.063738
vt 6.322568 8.063738
vt 6.821417 8.063738
vt 6.821417 3.758114
vt 6.821417 -0.5475106
vt 4.826022 -0.5475106
vt 4.826022 3.758114
vt 5.324871 3.758114
vt 5.324871 -0.5475106
vt 4.826022 8.063738
vt 5.324871 8.063738
vt 5.823719 16.67499
vt 5.823719 12.36936
vt 5.32487 12.36936
vt 5.32487 16.67499
vt 4.826021 12.36936
vt 4.826021 16.67499
vt 6.322568 12.36936
vt 6.322568 16.67499
vt 6.821417 16.67499
vt 6.821417 12.36936
vt 2.610133 -0.5475105
vt 2.610133 3.758114
vt 6.285963 3.758114
vt 6.285963 -0.5475106
vt 2.610133 8.063738
vt 6.285963 8.063738
vt 9.961793 8.063738
vt 9.961793 3.758113
vt 9.961793 -0.5475107
vt -4.741527 -0.5475103
vt -4.741527 3.758114
vt -1.065697 3.758114
vt -1.065697 -0.5475104
vt -4.741527 8.063738
vt -1.065697 8.063738
vt -4.741527 12.36936
vt -1.065697 12.36936
vt -4.741527 16.67499
vt -1.065697 16.67499
vt 2.610133 16.67499
vt 2.610133 12.36936
vt 6.285963 16.67499
vt 6.285963 12.36936
vt 9.961793 16.67499
vt 9.961793 12.36936
vt 5.823719 -2.610133
vt 5.32487 -2.610133
vt 5.32487 1.065697
vt 5.823719 1.065697
vt 4.826021 -2.610133
vt 4.826021 1.065697
vt 4.826021 4.741527
vt 5.32487 4.741527
vt 5.823719 4.741527
vt 6.821417 -2.610133
vt 6.322568 -2.610133
vt 6.322568 1.065697
vt 6.821417 1.065697
vt 6.322568 4.741527
vt 6.821417 4.741527
vt 6.821417 -9.961793
vt 6.322568 -9.961793
vt 6.322568 -6.285963
vt 6.821417 -6.285963
vt 5.823719 -9.961793
vt 5.823719 -6.285963
vt 5.32487 -9.961793
vt 5.32487 -6.285963
vt 4.826021 -9.961793
vt 4.826021 -6.285963
vt -4.826022 -2.610133
vt -4.826022 -6.285963
vt -5.324871 -6.285963
vt -5.324871 -2.610133
vt -4.826022 -9.961793
vt -5.324871 -9.961793
vt -5.82372 -9.961793
vt -5.82372 -6.285963
vt -5.82372 -2.610133
vt -6.821417 -9.961793
vt -6.821417 -6.285963
vt -6.322568 -6.285963
vt -6.322568 -9.961793
vt -6.821417 -2.610133
vt -6.322568 -2.610133
vt -5.823719 4.741527
vt -5.823719 1.065697
vt -6.322568 1.065697
vt -6.322568 4.741527
vt -6.821417 1.065697
vt -6.821417 4.741527
vt -4.826021 4.741527
vt -4.826021 1.065697
vt -5.32487 1.065697
vt -5.32487 4.741527

vn 0 0 1
vn -1 0 0
vn 0 0 -1
vn 1 -1.107475E-07 -1.297223E-07
vn 0 1 0
vn 1.194844E-07 -1 3.243056E-08

usemtl Wall
f 4/4/1 3/3/1 2/2/1 1/1/1
f 3/3/1 6/6/1 5/5/1 2/2/1
f 8/8/1 7/7/1 6/6/1 3/3/1
f 9/9/1 8/8/1 3/3/1 4/4/1
f 6/6/1 11/11/1 10/10/1 5/5/1
f 11/11/1 13/13/1 12/12/1 10/10/1
f 15/15/1 14/14/1 13/13/1 11/11/1
f 7/7/1 15/15/1 11/11/1 6/6/1
f 17/17/1 16/16/1 15/15/1 7/7/1
f 16/16/1 18/18/1 14/14/1 15/15/1
f 20/20/1 19/19/1 18/18/1 16/16/1
f 21/21/1 20/20/1 16/16/1 17/17/1
f 23/23/1 22/22/1 8/8/1 9/9/1
f 22/22/1 17/17/1 7/7/1 8/8/1
f 24/24/1 21/21/1 17/17/1 22/22/1
f 25/25/1 24/24/1 22/22/1 23/23/1
f 13/29/2 27/28/2 26/27/2 12/26/2
f 27/28/2 29/31/2 28/30/2 26/27/2
f 31/33/2 30/32/2 29/31/2 27/28/2
f 14/34/2 31/33/2 27/28/2 13/29/2
f 29/31/2 33/36/2 32/35/2 28/30/2
f 33/36/2 35/38/2 34/37/2 32/35/2
f 37/40/2 36/39/2 35/38/2 33/36/2
f 30/32/2 37/40/2 33/36/2 29/31/2
f 39/42/2 38/41/2 37/40/2 30/32/2
f 38/41/2 40/43/2 36/39/2 37/40/2
f 42/45/2 41/44/2 40/43/2 38/41/2
f 43/46/2 42/45/2 38/41/2 39/42/2
f 18/48/2 44/47/2 31/33/2 14/34/2
f 44/47/2 39/42/2 30/32/2 31/33/2
f 45/49/2 43/46/2 39/42/2 44/47/2
f 19/50/2 45/49/2 44/47/2 18/48/2
f 69/79/4 68/78/4 67/77/4 66/76/4
f 67/77/4 68/78/4 71/81/4 70/80/4
f 53/83/4 56/82/4 71/81/4 68/78/4
f 52/84/4 53/83/4 68/78/4 69/79/4
f 73/88/4 72/87/4 4/86/4 1/85/4
f 72/87/4 74/90/4 9/89/4 4/86/4
f 67/77/4 70/80/4 74/90/4 72/87/4
f 66/76/4 67/77/4 72/87/4 73/88/4
f 74/90/4 75/92/4 23/91/4 9/89/4
f 75/92/4 76/94/4 25/93/4 23/91/4
f 78/96/4 77/95/4 76/94/4 75/92/4
f 70/80/4 78/96/4 75/92/4 74/90/4
f 80/98/4 79/97/4 77/95/4 78/96/4
f 62/100/4 63/99/4 79/97/4 80/98/4
f 56/82/4 62/100/4 80/98/4 71/81/4
f 71/81/4 80/98/4 78/96/4 70/80/4
f 91/129/6 90/128/6 69/127/6 66/126/6
f 55/131/6 52/130/6 69/127/6 90/128/6
f 92/133/6 46/132/6 55/131/6 90/128/6
f 90/128/6 91/129/6 93/134/6 92/133/6
f 49/138/6 94/137/6 32/136/6 34/135/6
f 94/137/6 95/140/6 28/139/6 32/136/6
f 94/137/6 92/133/6 93/134/6 95/140/6
f 49/138/6 46/132/6 92/133/6 94/137/6
f 96/142/6 5/141/6 10/144/6 97/143/6
f 97/143/6 95/140/6 93/134/6 96/142/6
f 95/140/6 97/143/6 26/145/6 28/139/6
f 97/143/6 10/144/6 12/146/6 26/145/6
f 73/148/6 1/147/6 2/150/6 98/149/6
f 98/149/6 91/129/6 66/126/6 73/148/6
f 96/142/6 93/134/6 91/129/6 98/149/6
f 98/149/6 2/150/6 5/141/6 96/142/6

usemtl Wall
f 47/52/3 46/51/3 49/54/3 48/53/3
f 47/52/3 48/53/3 51/56/3 50/55/3
f 35/58/3 36/57/3 51/56/3 48/53/3
f 34/59/3 35/58/3 48/53/3 49/54/3
f 53/61/3 52/60/3 55/63/3 54/62/3
f 53/61/3 54/62/3 57/65/3 56/64/3
f 47/52/3 50/55/3 57/65/3 54/62/3
f 46/51/3 47/52/3 54/62/3 55/63/3
f 59/67/3 58/66/3 61/69/3 60/68/3
f 60/68/3 57/65/3 50/55/3 59/67/3
f 62/70/3 56/64/3 57/65/3 60/68/3
f 60/68/3 61/69/3 63/71/3 62/70/3
f 51/56/3 64/72/3 59/67/3 50/55/3
f 64/72/3 65/73/3 58/66/3 59/67/3
f 40/75/3 41/74/3 65/73/3 64/72/3
f 36/57/3 40/75/3 64/72/3 51/56/3
f 84/104/5 83/103/5 82/102/5 81/101/5
f 83/103/5 76/106/5 77/105/5 82/102/5
f 24/108/5 25/107/5 76/106/5 83/103/5
f 21/109/5 24/108/5 83/103/5 84/104/5
f 45/113/5 86/112/5 85/111/5 43/110/5
f 86/112/5 84/104/5 81/101/5 85/111/5
f 20/114/5 21/109/5 84/104/5 86/112/5
f 19/115/5 20/114/5 86/112/5 45/113/5
f 42/119/5 87/118/5 65/117/5 41/116/5
f 87/118/5 88/121/5 58/120/5 65/117/5
f 85/111/5 81/101/5 88/121/5 87/118/5
f 43/110/5 85/111/5 87/118/5 42/119/5
f 88/121/5 89/123/5 61/122/5 58/120/5
f 89/123/5 79/125/5 63/124/5 61/122/5
f 82/102/5 77/105/5 79/125/5 89/123/5
f 81/101/5 82/102/5 89/123/5 88/121/5

